<svg xmlns="http://www.w3.org/2000/svg" version="1.0" width="825.000000pt" height="200.000000pt" viewBox="0 0 825.000000 200.000000" preserveAspectRatio="xMidYMid meet">

<g transform="translate(0.000000,200.000000) scale(0.100000,-0.100000)" fill="#ffffff" stroke="none">
<path d="M819 1953 c-16 -27 -32 -58 -35 -70 -6 -20 -13 -23 -61 -23 -61 0 -191 -25 -242 -46 -34 -14 -35 -14 -75 25 -39 37 -54 45 -83 42 -17 -1 -33 -65 -33 -129 0 -43 -6 -61 -34 -102 -39 -57 -62 -118 -75 -205 -5 -33 -14 -80 -20 -103 -28 -107 52 -209 156 -200 43 3 46 2 79 -43 18 -25 52 -59 75 -75 l42 -29 -186 -3 -186 -2 -25 -30 c-47 -56 -44 -171 5 -216 27 -24 96 -23 233 6 54 11 99 20 101 20 1 0 -11 -26 -27 -57 l-29 -58 -147 0 c-157 -1 -214 -14 -240 -55 -24 -40 31 -85 75 -61 33 17 118 24 206 16 l84 -7 6 -58 c6 -66 42 -153 87 -211 l31 -39 -36 16 c-102 42 -196 37 -235 -14 -18 -22 -21 -37 -18 -82 6 -85 24 -113 78 -123 75 -14 363 5 443 29 23 7 22 18 -18 163 -19 69 -41 158 -49 197 l-13 72 59 4 c62 5 96 23 132 72 17 22 21 42 21 102 -1 66 1 74 18 74 11 0 39 -19 62 -42 54 -55 71 -122 61 -250 -6 -83 -6 -87 16 -100 58 -31 374 6 410 49 8 10 13 44 13 94 0 72 -2 81 -28 106 -39 39 -103 38 -189 -5 -34 -17 -64 -30 -65 -28 -1 1 4 24 12 51 17 56 20 171 4 212 -6 15 -20 38 -31 50 -16 18 -18 23 -7 27 8 2 57 16 109 31 52 14 101 32 109 39 19 20 25 97 11 140 -6 20 -23 50 -37 66 -34 41 -77 39 -178 -6 -44 -19 -85 -37 -91 -40 -6 -3 -1 25 12 62 17 51 30 71 54 87 40 25 70 85 70 138 0 51 -33 124 -66 145 -13 9 -37 40 -53 69 -17 29 -49 73 -72 97 -31 33 -46 59 -60 112 -11 37 -29 86 -40 107 -27 54 -52 51 -90 -8z m-69 -157 c0 -1 -5 -17 -10 -33 -10 -28 -15 -31 -73 -36 -34 -3 -79 -13 -99 -21 -49 -21 -51 -21 -71 14 -17 28 -17 29 2 40 35 18 134 38 194 39 31 1 57 -1 57 -3z m275 -166 c13 -25 13 -29 0 -34 -10 -4 -17 3 -21 22 -3 15 -7 33 -10 40 -7 22 15 2 31 -28z m-735 -100 c0 -58 -1 -60 -26 -60 -21 0 -24 3 -19 23 8 29 37 97 42 97 1 0 3 -27 3 -60z m717 -219 c-3 -44 -11 -100 -18 -125 -10 -41 -15 -46 -39 -46 -24 0 -31 7 -51 53 l-23 52 -9 -52 c-9 -50 -11 -53 -46 -58 -20 -3 -61 -12 -91 -20 l-55 -15 -33 38 -34 37 6 -51 c6 -48 5 -53 -21 -69 -27 -18 -27 -18 -52 13 -14 17 -43 62 -64 100 l-38 71 43 25 43 26 33 -38 33 -37 -5 48 c-6 48 -5 48 31 63 20 9 74 24 120 34 l84 18 20 -31 c10 -18 19 -35 19 -39 0 -5 5 -8 10 -8 6 0 10 17 10 38 0 21 3 42 7 45 3 4 33 7 66 7 l60 0 -6 -79z m-241 -614 c10 -68 -12 -97 -71 -97 -52 0 -56 10 -26 76 20 44 69 90 83 76 4 -4 11 -29 14 -55z" fill="#ffffff"/>
<path d="M4855 1465 l-25 -24 0 -291 c0 -238 3 -297 15 -327 42 -101 125 -156 238 -157 63 -1 71 1 93 27 26 31 30 54 13 90 -14 32 -49 47 -104 47 -36 0 -47 5 -69 31 -25 30 -26 35 -26 165 l0 134 76 0 c70 0 78 2 105 29 35 36 37 70 5 108 -22 25 -31 28 -105 31 l-81 4 0 55 c0 65 -29 103 -80 103 -19 0 -40 -9 -55 -25z" fill="#ffffff"/>
<path d="M7679 1471 l-24 -19 0 -304 c0 -292 1 -304 22 -344 45 -84 145 -144 240 -144 78 0 124 56 97 118 -15 36 -47 52 -103 52 -24 0 -48 8 -65 21 -26 20 -26 21 -26 165 l0 144 64 0 c83 0 114 12 130 52 31 72 -19 118 -129 118 l-65 0 0 45 c0 51 -20 99 -45 109 -31 12 -73 6 -96 -13z" fill="#ffffff"/>
<path d="M1927 1316 c-102 -28 -185 -117 -207 -221 -7 -32 -10 -122 -8 -220 3 -155 4 -166 25 -187 33 -33 89 -30 119 6 23 26 24 32 24 203 0 192 6 214 60 247 57 33 128 15 167 -43 22 -32 23 -43 23 -206 0 -157 2 -175 20 -198 11 -13 31 -28 45 -31 29 -7 79 15 89 39 3 9 6 91 6 181 0 186 8 221 62 254 57 35 141 19 170 -33 9 -15 15 -84 18 -209 5 -177 6 -189 27 -210 34 -33 89 -30 120 7 l25 28 -4 196 c-3 190 -4 198 -30 247 -52 99 -148 158 -258 158 -69 0 -145 -27 -185 -64 -21 -20 -21 -20 -62 10 -38 28 -135 61 -178 59 -11 0 -42 -6 -68 -13z" fill="#ffffff"/>
<path d="M3010 1315 c-141 -39 -250 -179 -250 -320 0 -97 65 -217 147 -272 174 -117 401 -50 490 143 37 81 35 186 -7 270 -72 146 -229 220 -380 179z m157 -171 c111 -53 123 -213 21 -286 -45 -32 -143 -33 -185 -2 -90 67 -100 188 -21 261 47 44 124 55 185 27z" fill="#ffffff"/>
<path d="M3742 1320 c-98 -20 -186 -92 -234 -189 -21 -42 -23 -63 -26 -229 -3 -177 -3 -185 18 -207 12 -13 33 -26 46 -29 32 -8 82 18 89 47 2 12 6 92 7 177 3 143 5 158 27 193 63 102 220 100 284 -3 20 -31 22 -50 25 -190 1 -85 5 -165 7 -177 7 -29 57 -55 89 -47 13 3 34 16 46 29 21 22 21 30 18 207 -3 166 -5 187 -26 229 -69 141 -223 219 -370 189z" fill="#ffffff"/>
<path d="M4364 1321 c-180 -44 -213 -290 -51 -382 36 -20 59 -24 166 -29 104 -4 126 -8 135 -22 8 -13 8 -23 0 -35 -10 -16 -34 -19 -187 -23 -152 -4 -178 -7 -195 -24 -25 -22 -31 -51 -19 -89 16 -48 49 -57 219 -57 169 1 213 7 262 41 56 38 80 83 84 158 5 87 -23 143 -93 186 -45 28 -56 30 -173 35 -105 4 -127 8 -136 23 -8 12 -8 22 0 35 10 14 32 18 160 22 180 6 204 16 204 85 0 72 -33 85 -207 84 -76 -1 -152 -4 -169 -8z" fill="#ffffff"/>
<path d="M5445 1316 c-102 -25 -178 -88 -224 -185 -35 -75 -37 -192 -4 -263 47 -103 122 -165 233 -194 120 -30 194 -3 194 72 0 53 -39 84 -105 84 -59 0 -105 18 -138 54 l-24 26 202 0 c266 0 281 8 268 135 -13 126 -112 236 -244 270 -67 18 -90 18 -158 1z m148 -172 c37 -19 67 -44 67 -56 0 -4 -64 -8 -142 -8 l-141 0 24 26 c48 53 131 69 192 38z" fill="#ffffff"/>
<path d="M6172 1319 c-104 -20 -204 -106 -242 -205 -17 -47 -20 -78 -20 -227 1 -119 4 -177 13 -188 33 -43 88 -46 125 -6 18 20 21 38 24 187 3 145 6 169 24 200 23 40 86 80 127 80 89 0 130 90 66 144 -32 27 -47 29 -117 15z" fill="#ffffff"/>
<path d="M6560 1315 c-97 -28 -170 -89 -218 -185 -22 -46 -27 -68 -27 -135 0 -67 5 -89 28 -137 36 -74 119 -150 189 -174 110 -38 242 -14 324 59 53 47 60 92 19 132 -33 34 -72 32 -125 -7 -39 -29 -52 -33 -106 -33 -104 0 -159 56 -159 160 0 104 55 160 159 160 54 0 67 -4 106 -32 25 -19 56 -33 72 -33 41 0 78 40 78 84 0 28 -8 41 -46 74 -77 68 -193 95 -294 67z" fill="#ffffff"/>
<path d="M7171 1314 c-66 -17 -104 -40 -153 -91 -91 -94 -117 -241 -63 -360 71 -160 261 -239 422 -176 l51 20 21 -20 c31 -32 87 -28 117 7 23 26 24 34 24 176 0 181 -10 233 -60 308 -47 69 -114 116 -195 137 -71 18 -94 18 -164 -1z m177 -181 c98 -72 98 -204 -1 -277 -42 -31 -140 -30 -185 2 -40 29 -72 89 -72 137 0 64 48 133 110 158 30 13 121 1 148 -20z" fill="#ffffff"/>
</g>
</svg>